<?xml version="1.0" encoding="utf-8"?><!DOCTYPE svg PUBLIC "-//W3C//DTD SVG 1.1//EN" "http://www.w3.org/Graphics/SVG/1.1/DTD/svg11.dtd"><svg id="github-corner-left-top" width="128" height="128" style="width:128px;height:128px;" version="1.1" xmlns="http://www.w3.org/2000/svg" viewBox="0 0 1024 1024" enable-background="new 0 0 1024 1024" xml:space="preserve"><path fill="#666" d="M0 0 l0 1024 l442.92 -441.9 l48.76 -110.73 l60.95 0 l471.37 -471.37 l-1024 0 ZM471.37 425.65 q14.22 -3.05 28.95 -18.79 q14.73 -15.75 7.62 -46.23 q-1.02 -1.01 -2.04 -14.73 q-1.01 -13.71 10.15 -30.98 q1.02 -2.03 7.63 -6.6 q6.61 -4.57 4.57 15.74 q-1.01 0 -0.5 11.69 q0.5 11.69 8.63 33.01 q3.05 1.02 4.57 24.89 q1.53 23.87 -41.14 52.32 l-28.44 -20.32 ZM442.92 582.1 q1.02 -1.02 3.56 -9.66 q2.54 -8.63 0.5 -15.74 l-49.77 -44.7 q-12.19 -12.19 -16.25 -23.88 q-4.06 -11.69 -4.06 -20.82 q-33.52 26.41 -76.19 32 q-42.67 5.59 -91.43 -40.13 q-29.46 -30.47 -28.44 -66.03 q-7.12 0 -19.82 -10.15 q-12.69 -10.16 -25.9 -34.55 q-1.01 -1.01 13.21 -12.19 q14.22 -11.18 56.89 -25.39 q12.19 -24.38 36.57 -48.76 q24.38 -24.39 48.76 -36.58 q7.11 -39.62 17.77 -53.33 q10.67 -13.71 11.69 -12.7 q26.41 12.19 36.57 25.4 q10.16 13.21 12.19 20.32 q35.56 -1.02 66.03 28.44 q48.77 51.81 42.17 92.96 q-6.61 41.14 -34.04 74.66 q13.21 0 32.51 12.19 l56.89 57.91 q4.06 5.07 11.68 3.04 q7.62 -2.03 -101.08 107.69 Z"/></svg>