<?xml version="1.0" encoding="utf-8"?><!DOCTYPE svg PUBLIC "-//W3C//DTD SVG 1.1//EN" "http://www.w3.org/Graphics/SVG/1.1/DTD/svg11.dtd"><svg id="github-corner-right-bottom" width="128" height="128" style="width:128px;height:128px;" version="1.1" xmlns="http://www.w3.org/2000/svg" viewBox="0 0 1024 1024" enable-background="new 0 0 1024 1024" xml:space="preserve"><path fill="#666" d="M1024 1024 l-1024 0 l441.9 -441.9 l110.73 -49.78 l0 -60.95 l471.37 -471.37 l0 1024 ZM598.35 552.63 q3.05 -14.22 18.79 -28.95 q15.75 -14.73 46.23 -7.62 q1.01 1.02 14.73 2.04 q13.71 1.01 30.99 -10.16 q2.03 -1.02 6.6 -7.63 q4.57 -6.61 -15.74 -4.56 q0 1.01 -11.68 0.5 q-11.69 -0.5 -33.02 -8.63 q-1.02 -3.05 -24.89 -4.58 q-23.87 -1.52 -52.32 41.15 l20.32 28.44 ZM455.11 582.1 q1.02 -1.02 8.64 -3.56 q7.62 -2.54 11.68 -0.51 l44.7 48.76 q12.19 12.19 23.87 16.26 q11.68 4.06 20.83 4.06 q-26.42 33.52 -32 76.19 q-5.59 42.67 40.13 91.43 q30.48 30.48 66.03 29.46 q0 7.11 10.16 19.81 q10.16 12.7 34.54 24.89 q1.02 1.01 9.66 -13.21 q8.63 -14.22 19.8 -55.87 q24.38 -13.21 48.76 -37.59 q24.39 -24.38 36.58 -48.76 q39.62 -7.11 53.33 -17.27 q13.71 -10.16 12.7 -11.17 q-12.19 -27.43 -25.4 -37.59 q-13.21 -10.16 -20.32 -12.19 q1.02 -35.56 -28.44 -65.02 q-51.81 -49.78 -92.96 -43.17 q-41.14 6.6 -74.66 35.05 q0 -13.21 -12.19 -33.53 l-57.91 -56.89 q-5.07 -4.06 -3.04 -11.68 q2.03 -7.62 -94.48 102.1 Z"/></svg>