<?xml version="1.0" encoding="utf-8"?><!DOCTYPE svg PUBLIC "-//W3C//DTD SVG 1.1//EN" "http://www.w3.org/Graphics/SVG/1.1/DTD/svg11.dtd"><svg id="github-corner-right-top" width="128" height="128" style="width:128px;height:128px;" version="1.1" xmlns="http://www.w3.org/2000/svg" viewBox="0 0 1024 1024" enable-background="new 0 0 1024 1024" xml:space="preserve"><path fill="#666" d="M1024 0 l0 1024 l-441.9 -441.9 l-49.78 -110.73 l-60.95 0 l-471.37 -471.37 l1024 0 ZM552.63 425.65 q-14.22 -3.05 -28.95 -18.79 q-14.73 -15.75 -7.62 -46.23 q1.02 -1.01 2.04 -14.73 q1.01 -13.71 -10.16 -30.98 q-1.02 -2.03 -7.63 -6.6 q-6.61 -4.57 -4.56 15.74 q1.01 0 0.5 11.69 q-0.5 11.69 -8.63 33.01 q-3.05 1.02 -4.58 24.89 q-1.52 23.87 41.15 52.32 l28.44 -20.32 ZM582.1 568.89 q-1.02 -1.02 -3.56 -8.64 q-2.54 -7.62 -0.51 -11.68 l48.76 -44.7 q12.19 -12.19 16.26 -23.87 q4.06 -11.68 4.06 -20.83 q33.52 26.42 76.19 32 q42.67 5.59 91.43 -40.12 q30.48 -30.48 29.46 -66.03 q7.11 0 19.81 -10.16 q12.7 -10.16 24.89 -34.54 q1.01 -1.02 -13.21 -9.66 q-14.22 -8.63 -55.87 -19.8 q-13.21 -24.38 -37.59 -48.76 q-24.38 -24.39 -48.76 -36.58 q-7.11 -39.62 -17.27 -53.33 q-10.16 -13.71 -11.17 -12.7 q-27.43 12.19 -37.59 25.4 q-10.16 13.21 -12.19 20.32 q-35.56 -1.02 -65.02 28.44 q-49.78 51.81 -43.17 92.96 q6.6 41.14 35.05 74.66 q-13.21 0 -33.53 12.19 l-56.89 57.91 q-4.06 5.07 -11.68 3.04 q-7.62 -2.03 102.1 94.48 Z"/></svg>