<?xml version="1.0" encoding="utf-8"?><!DOCTYPE svg PUBLIC "-//W3C//DTD SVG 1.1//EN" "http://www.w3.org/Graphics/SVG/1.1/DTD/svg11.dtd"><svg id="github-corner-left-bottom" width="128" height="128" style="width:128px;height:128px;" version="1.1" xmlns="http://www.w3.org/2000/svg" viewBox="0 0 1024 1024" enable-background="new 0 0 1024 1024" xml:space="preserve"><path fill="#666" d="M0 1024 l1024 0 l-441.9 -442.92 l-110.73 -48.76 l0 -60.95 l-471.37 -471.37 l0 1024 ZM425.65 552.63 q-3.05 -14.22 -18.79 -28.95 q-15.75 -14.73 -46.23 -7.62 q-1.01 1.02 -14.73 2.04 q-13.71 1.01 -30.98 -10.16 q-2.03 -1.02 -6.6 -7.63 q-4.57 -6.61 15.74 -4.56 q0 1.01 11.69 0.5 q11.69 -0.5 33.01 -8.63 q1.02 -3.05 24.89 -4.58 q23.87 -1.52 52.32 41.15 l-20.32 28.44 ZM582.1 581.08 q-1.02 -1.02 -9.66 -3.56 q-8.63 -2.54 -15.74 -0.5 l-44.7 49.77 q-12.19 12.19 -23.88 16.26 q-11.69 4.06 -20.82 4.06 q26.41 33.52 32 76.19 q5.59 42.67 -40.13 91.43 q-30.47 29.46 -66.03 28.44 q0 7.12 -10.15 19.81 q-10.16 12.7 -34.55 25.91 q-1.01 1.01 -12.19 -13.21 q-11.18 -14.22 -25.39 -56.89 q-24.38 -12.19 -48.76 -36.57 q-24.39 -24.38 -36.58 -48.76 q-39.62 -7.11 -53.33 -17.78 q-13.71 -10.66 -12.7 -11.68 q12.19 -26.41 25.4 -36.57 q13.21 -10.16 20.32 -12.19 q-1.02 -35.56 28.44 -66.03 q51.81 -48.77 92.96 -42.16 q41.14 6.6 74.66 34.03 q0 -13.21 12.19 -32.51 l57.91 -56.89 q5.07 -4.06 3.04 -11.68 q-2.03 -7.62 107.69 101.08 Z"/></svg>