<svg id="logo-yulia" width="512" height="512" style="width:512px;height:512px;" version="1.1" viewBox="0 0 1024 1024" enable-background="new 0 0 1024 1024" xml:space="preserve"><path fill="#000000" d="M1024 182.62 q0 -37.29 -13.38 -70.75 q-13.38 -33.47 -37.29 -58.33 q-23.91 -24.86 -55.46 -39.2 q-31.55 -14.34 -68.84 -14.34 q-43.02 0 -78.4 18.64 q-35.38 18.64 -59.28 50.2 q-45.89 -17.21 -96.56 -26.77 q-50.68 -9.56 -102.79 -9.56 q-52.11 0 -102.31 9.56 q-50.19 9.56 -96.08 26.77 q-22.95 -31.55 -59.28 -50.2 q-36.34 -18.64 -78.4 -18.64 q-36.34 0 -68.84 14.34 q-32.51 14.34 -55.93 39.2 q-23.43 24.86 -37.29 58.33 q-13.87 33.47 -13.87 70.75 q0 71.71 45.89 123.34 q-45.89 87.96 -45.89 192.18 q0 96.56 40.63 182.14 q40.63 85.57 109.47 148.2 q68.84 62.63 162.06 98.96 q93.22 36.33 200.3 36.33 q107.09 0 199.83 -36.33 q92.75 -36.33 162.54 -98.96 q69.79 -62.63 109.47 -148.2 q39.68 -85.58 39.68 -182.14 q0 -104.22 -45.89 -192.18 q45.89 -51.63 45.89 -123.34 ZM206.52 597.57 q-8.6 0 -17.69 -10.04 q-9.08 -10.04 -16.25 -28.2 q-7.17 -18.17 -11 -42.55 q-3.82 -24.38 -3.82 -52.11 q0 -27.73 3.82 -51.63 q3.83 -23.9 11 -41.59 q7.17 -17.69 16.25 -28.2 q9.09 -10.51 17.69 -10.51 q9.56 0 18.16 10.51 q8.6 10.51 15.3 28.2 q6.69 17.69 10.52 41.59 q3.83 23.9 3.83 51.63 q0 27.73 -3.83 52.11 q-3.82 24.38 -10.52 42.55 q-6.7 18.16 -15.3 28.2 q-8.6 10.04 -18.16 10.04 ZM512.48 897.79 q-53.54 0 -99.92 -12.9 q-46.38 -12.9 -81.27 -35.38 q-34.89 -22.47 -54.97 -53.07 q-20.08 -30.59 -20.08 -65.01 q0 -33.47 20.08 -63.58 q20.08 -30.12 54.97 -52.59 q34.9 -22.47 81.27 -36.34 q46.38 -13.87 99.44 -13.87 q53.06 0 99.91 13.87 q46.85 13.87 81.75 36.34 q34.9 22.47 54.5 52.59 q19.6 30.12 19.6 63.58 q0 34.42 -19.6 65.01 q-19.6 30.6 -54.5 53.07 q-34.9 22.47 -81.75 35.38 q-46.85 12.9 -99.43 12.9 ZM818.44 597.57 q-8.61 0 -17.7 -10.04 q-9.09 -10.04 -15.3 -28.2 q-6.21 -18.17 -10.51 -42.55 q-4.3 -24.38 -4.3 -52.11 q0 -27.73 4.3 -51.63 q4.3 -23.9 10.51 -41.59 q6.22 -17.69 15.3 -28.2 q9.09 -10.51 17.7 -10.51 q10.51 0 19.12 10.51 q8.6 10.51 15.77 28.2 q7.17 17.69 10.04 41.59 q2.87 23.9 2.87 51.63 q0 27.73 -2.87 52.11 q-2.87 24.38 -10.04 42.55 q-7.17 18.16 -15.77 28.2 q-8.61 10.04 -19.12 10.04 ZM512.48 631.04 q-40.16 0 -67.88 9.56 q-27.73 9.56 -27.73 23.9 q0 14.34 27.73 24.38 q27.72 10.04 67.88 10.04 q40.15 0 67.88 -10.04 q27.73 -10.04 27.73 -24.38 q0 -14.34 -27.73 -23.9 q-27.73 -9.56 -67.88 -9.56 Z"/></svg>